# xmcd
#
# Track frame offsets: 
#        150
#        23020
#        34129
#        51084
#        64711
#        82248
#
# Disc length: 2032 seconds
#
# Revision: 0
# Processed by: cddbd v1.5.2PL0 Copyright (c) Steve Scherf et al.
# Submitted via: ExactAudioCopy v1.0b4
#
DISCID=4807ee06
DTITLE=Johnny Rivers - John Lee Hooker (LP)
DYEAR=1996
DGENRE=Blues
TTITLE0=C.C. Rider-Got My Mojo Working
TTITLE1=Sunny
TTITLE2=It's Too Late
TTITLE3=A Hard Day's Night
TTITLE4=When A Man Loves A Woman
TTITLE5=John Lee Hooker
EXTD=
EXTT0=
EXTT1=
EXTT2=
EXTT3=
EXTT4=
EXTT5=
PLAYORDER=
